<?xml version="1.0" encoding="utf-8"?>
<!-- Generator: Adobe Illustrator 15.0.0, SVG Export Plug-In . SVG Version: 6.00 Build 0)  -->
<!DOCTYPE svg PUBLIC "-//W3C//DTD SVG 1.1//EN" "http://www.w3.org/Graphics/SVG/1.1/DTD/svg11.dtd">
<svg version="1.1" id="Layer_1" xmlns="http://www.w3.org/2000/svg" xmlns:xlink="http://www.w3.org/1999/xlink" x="0px" y="0px"
	 width="473.229px" height="473.229px" viewBox="0 0 473.229 473.229" enable-background="new 0 0 473.229 473.229"
	 xml:space="preserve">
<g>
	<g>
		<path d="M93.996,355.635V322.67l-26.847,32.965H93.996z M0,0v473.229h473.229V0H0z M226.85,125.724
			c0-17.897,10.684-33.056,27.12-33.056s26.847,14.976,26.847,32.873v0.183c0,17.898-10.593,33.056-27.029,33.056
			c-16.528,0-26.938-14.976-26.938-32.873V125.724z M89.839,93.307h5.296v64.376h-7.123v-56.889l-12.053,3.744l-1.735-5.844
			L89.839,93.307z M110.889,361.662h-9.953v15.157h-6.94v-15.157H60.3l-1.827-5.206l36.161-44.013h6.301v43.191h9.953V361.662z
			 M115.363,267.252l-7.488-16.893H73.084l-7.579,16.893h-7.396l29.129-64.376h6.757l29.129,64.376H115.363z M144.826,125.724
			c0-17.897,10.684-33.056,27.12-33.056c16.437,0,26.847,14.976,26.847,32.873v0.183c0,17.898-10.592,33.056-27.029,33.056
			c-16.528,0-26.938-14.976-26.938-32.873V125.724z M144.85,203.332h6.757l40.27,51.228v-51.228h7.031v63.92h-5.753l-41.274-52.415
			v52.415h-7.031V203.332z M199.79,344.859c0,17.898-10.592,33.057-27.029,33.057c-16.527,0-26.938-14.976-26.938-32.874v-0.183
			c0-17.897,10.684-33.056,27.12-33.056c16.437,0,26.847,14.976,26.847,32.873V344.859z M282.271,235.292
			c0,17.988-13.88,31.96-33.969,31.96h-22.189v-63.92h22.189c20.089,0,33.969,13.789,33.969,31.777V235.292z M253.97,152.205
			c11.963,0,19.359-12.328,19.359-26.298v-0.183c0-13.971-7.671-26.481-19.542-26.481c-11.962,0-19.45,12.236-19.45,26.298v0.183
			C234.337,139.695,242.008,152.205,253.97,152.205z M75.915,243.875h29.129l-14.519-32.599L75.915,243.875z M248.302,209.998
			h-14.976v50.588h14.976c16.162,0,26.481-10.958,26.481-25.111v-0.183C274.783,221.138,264.464,209.998,248.302,209.998z
			 M171.946,152.205c11.963,0,19.359-12.328,19.359-26.298v-0.183c0-13.971-7.67-26.481-19.541-26.481
			c-11.962,0-19.45,12.236-19.45,26.298v0.183C152.314,139.695,159.984,152.205,171.946,152.205z M172.761,318.379
			c-11.962,0-19.45,12.235-19.45,26.298v0.183c0,13.971,7.67,26.481,19.632,26.481c11.963,0,19.359-12.328,19.359-26.299v-0.183
			C192.303,330.889,184.632,318.379,172.761,318.379z"/>
	</g>
</g>
</svg>
